<?xml version="1.0" encoding="utf-8"?>
<!-- Generator: Adobe Illustrator 27.5.0, SVG Export Plug-In . SVG Version: 6.00 Build 0)  -->
<svg version="1.1" id="Layer_1" xmlns="http://www.w3.org/2000/svg" xmlns:xlink="http://www.w3.org/1999/xlink" x="0px" y="0px"
	 viewBox="0 0 48 48" style="enable-background:new 0 0 48 48;" xml:space="preserve">
<style type="text/css">
	.st0{fill:#007185;}
</style>
<path class="st0" d="M24,27.5c1.2,0,2.3-0.4,3.1-1.3c0.8-0.8,1.3-1.9,1.3-3.1c0-1.2-0.4-2.3-1.3-3.1c-0.9-0.8-1.9-1.3-3.1-1.3
	c-1.2,0-2.3,0.4-3.1,1.3c-0.8,0.9-1.2,1.9-1.2,3.1c0,1.2,0.4,2.3,1.2,3.1C21.7,27.1,22.8,27.5,24,27.5z M15.7,36.3h16.7v-1.5
	c0-0.9-0.2-1.7-0.7-2.4c-0.5-0.7-1.1-1.3-1.9-1.7c-0.9-0.4-1.8-0.7-2.8-0.9C26,29.7,25,29.6,24,29.6c-1,0-2,0.1-2.9,0.3
	c-0.9,0.2-1.8,0.5-2.7,0.9c-0.8,0.4-1.5,0.9-2,1.7c-0.5,0.7-0.7,1.5-0.7,2.4C15.7,34.8,15.7,36.3,15.7,36.3z M37,44.9H11
	c-1,0-1.9-0.4-2.7-1.2C7.6,42.9,7.2,42,7.2,41V7c0-1,0.4-1.9,1.2-2.7C9.1,3.5,10,3.1,11,3.1h15.8c0.5,0,1,0.1,1.5,0.3
	c0.5,0.2,0.9,0.5,1.3,0.9l10.1,10.1c0.4,0.4,0.7,0.8,0.9,1.3c0.2,0.5,0.3,1,0.3,1.5V41c0,1-0.4,1.9-1.2,2.7
	C38.9,44.5,38,44.9,37,44.9z M37,41V17.3L26.6,7H11v34H37z M11,41V7C11,7,11,41,11,41z"/>
</svg>
