<?xml version="1.0" encoding="utf-8"?>
<!-- Generator: Adobe Illustrator 27.5.0, SVG Export Plug-In . SVG Version: 6.00 Build 0)  -->
<svg version="1.1" id="Layer_1" xmlns="http://www.w3.org/2000/svg" xmlns:xlink="http://www.w3.org/1999/xlink" x="0px" y="0px"
	 viewBox="0 0 48 48" style="enable-background:new 0 0 48 48;" xml:space="preserve">
<style type="text/css">
	.st0{fill:#007185;}
</style>
<path class="st0" d="M21.7,40.8H11.3c-0.5,0-1-0.2-1.4-0.5c-0.4-0.4-0.6-0.8-0.6-1.4V24.7H4.9c-0.4,0-0.7-0.2-0.9-0.6
	c-0.2-0.4-0.1-0.8,0.3-1.1L22.7,6.3C23.1,6,23.5,5.8,24,5.8c0.5,0,0.9,0.2,1.3,0.5l8.3,7.4V9.9c0-0.5,0.2-1,0.5-1.4
	C34.5,8.1,35,8,35.5,8h1.3c0.5,0,1,0.2,1.4,0.5c0.4,0.4,0.6,0.8,0.6,1.4v8.5l5.1,4.6c0.3,0.3,0.4,0.7,0.2,1.1
	c-0.2,0.4-0.5,0.6-0.9,0.6h-4.5v14.2c0,0.5-0.2,1-0.6,1.4c-0.4,0.4-0.8,0.5-1.4,0.5H26.3V28.4h-4.6C21.7,28.4,21.7,40.8,21.7,40.8z
	 M13.1,37H18V26.6c0-0.5,0.2-1,0.5-1.4c0.4-0.4,0.8-0.5,1.4-0.5h8.2c0.5,0,1,0.2,1.4,0.5s0.5,0.8,0.5,1.4V37h4.9v-17L24,10.1
	l-10.9,9.9V37z M19.5,19.8h8.9c0-1.2-0.4-2.2-1.3-2.9c-0.9-0.8-1.9-1.1-3.1-1.1s-2.2,0.4-3.1,1.1S19.5,18.6,19.5,19.8z M19.9,24.7
	h8.2H19.9z"/>
</svg>
