<?xml version="1.0" encoding="utf-8"?>
<!-- Generator: Adobe Illustrator 27.5.0, SVG Export Plug-In . SVG Version: 6.00 Build 0)  -->
<svg version="1.1" id="Layer_1" xmlns="http://www.w3.org/2000/svg" xmlns:xlink="http://www.w3.org/1999/xlink" x="0px" y="0px"
	 viewBox="0 0 48 48" style="enable-background:new 0 0 48 48;" xml:space="preserve">
<style type="text/css">
	.st0{fill:#007185;}
</style>
<path class="st0" d="M21,43.7c-1.9-1.3-3.8-2.3-5.9-3.1c-2-0.8-4.1-1.4-6.3-1.7c-1.1-0.2-1.9-0.6-2.6-1.3s-1-1.6-1-2.6V20
	c0-1,0.4-1.8,1.1-2.5c0.7-0.6,1.5-0.9,2.5-0.8c2.7,0.4,5.4,1.3,8,2.6c2.6,1.3,5,3,7.3,5.1c2.3-2.1,4.7-3.8,7.3-5.1
	c2.6-1.3,5.3-2.2,8-2.6c0.9-0.1,1.7,0.2,2.4,0.8c0.7,0.6,1,1.4,1,2.4v15c0,1-0.3,1.8-1,2.6c-0.7,0.7-1.5,1.2-2.6,1.3
	c-2.2,0.3-4.3,0.9-6.3,1.7c-2,0.8-4,1.8-5.9,3.1c-0.9,0.6-1.9,0.9-3,0.9S21.8,44.3,21,43.7z M24,41.3c2.3-1.7,4.7-3.1,7.2-4.1
	c2.5-1,5.1-1.7,7.7-2V20.8c-2.3,0.3-4.7,1.2-7.2,2.6c-2.5,1.4-5.1,3.4-7.8,5.9c-2.8-2.6-5.4-4.6-7.8-6c-2.4-1.4-4.8-2.2-7.1-2.6
	v14.4c2.6,0.3,5.2,0.9,7.7,2C19.2,38.2,21.7,39.5,24,41.3z M24.2,17.5c-2.3,0-4.3-0.8-5.9-2.4c-1.6-1.6-2.4-3.5-2.4-5.9
	c0-2.3,0.8-4.3,2.4-5.9C19.9,1.8,21.8,1,24.1,1s4.3,0.8,5.9,2.4c1.6,1.6,2.4,3.5,2.4,5.9c0,2.3-0.8,4.3-2.4,5.9
	C28.4,16.7,26.5,17.5,24.2,17.5z M24.2,13.8c1.2,0,2.3-0.4,3.2-1.3c0.9-0.9,1.3-1.9,1.3-3.2S28.2,7,27.3,6.1
	c-0.9-0.9-1.9-1.3-3.2-1.3S21.8,5.2,21,6.1c-0.9,0.9-1.3,1.9-1.3,3.2c0,1.2,0.4,2.3,1.3,3.2C21.9,13.3,22.9,13.8,24.2,13.8z"/>
</svg>
