<?xml version="1.0" encoding="utf-8"?>
<!-- Generator: Adobe Illustrator 27.7.0, SVG Export Plug-In . SVG Version: 6.00 Build 0)  -->
<svg version="1.1" xmlns="http://www.w3.org/2000/svg" xmlns:xlink="http://www.w3.org/1999/xlink" x="0px" y="0px"
	 viewBox="0 0 828.7 75.7" style="enable-background:new 0 0 828.7 75.7;" xml:space="preserve">
<style type="text/css">
	.st0{fill:url(#SVGID_1_);}
	.st1{fill:url(#SVGID_00000024002553138903571990000001508580856996661420_);}
	.st2{opacity:0.85;fill:#0A476B;}
	.st3{fill:#237FB4;}
	.st4{clip-path:url(#SVGID_00000022551774082649787010000001801203238878018485_);}
	.st5{fill:url(#SVGID_00000029743449033921205090000002717322811161584032_);}
	.st6{opacity:0.8;fill:#237FB4;}
	.st7{opacity:0.8;}
	.st8{stroke:#FFFFFF;stroke-width:10.3188;stroke-miterlimit:10;}
	.st9{fill:#FFFFFF;stroke:#FFFFFF;stroke-width:10.3188;stroke-miterlimit:10;}
	.st10{fill:#187195;}
	.st11{fill:#FFFFFF;}
	.st12{fill:#221F1F;}
	.st13{fill:none;}
	.st14{fill:url(#SVGID_00000088107444599046943860000011028367877882137260_);}
	.st15{fill:url(#SVGID_00000093155497277401562430000009244908678403531681_);}
	.st16{opacity:0.8;fill:url(#SVGID_00000019652021633280858010000006447990713256932492_);}
	.st17{opacity:0.8;fill:url(#SVGID_00000134929690512898528700000000130278235907476406_);}
	.st18{fill:url(#SVGID_00000086690084071596167180000011793478540577137551_);}
	.st19{fill:url(#SVGID_00000107574108848834780700000014889968072596216220_);}
	.st20{fill-rule:evenodd;clip-rule:evenodd;fill:#A3A3A3;}
	.st21{fill-rule:evenodd;clip-rule:evenodd;fill:#C9C9C9;}
	.st22{fill-rule:evenodd;clip-rule:evenodd;fill:#127F9A;}
	.st23{fill:url(#SVGID_00000067220170290574971050000005006259486281998728_);}
	.st24{fill:#237FAE;}
	.st25{fill:url(#SVGID_00000084506156970195498870000018159337080583958940_);}
	.st26{fill:#0D80A8;}
	.st27{fill-rule:evenodd;clip-rule:evenodd;fill:#0D80A8;}
	.st28{fill:url(#SVGID_00000033352938915488855950000004265905009019492743_);}
	.st29{fill:url(#SVGID_00000019672123216891928920000011176024859911938182_);}
	.st30{fill:none;stroke:#FFFFFF;stroke-miterlimit:10;}
	.st31{fill:#0D80AC;}
	.st32{fill-rule:evenodd;clip-rule:evenodd;fill:#0D80AC;}
	.st33{clip-path:url(#SVGID_00000180344346147811446450000017644589065324012416_);}
	.st34{fill:url(#SVGID_00000026862838342830372770000016736810737511634569_);}
	.st35{fill:url(#SVGID_00000045594726058012869070000005253375617921240202_);}
	.st36{fill:url(#SVGID_00000008109235078638108610000015059966017269459629_);}
	.st37{opacity:0.9;fill:#16718D;}
	.st38{fill:#016F9D;}
	.st39{fill:#01486C;}
	.st40{fill:#01486C;stroke:#01486C;stroke-width:0.6222;}
	.st41{fill:#01486C;stroke:#01486C;stroke-width:0.4316;}
	.st42{fill:#17708C;}
	.st43{fill:#0A476B;}
	.st44{fill:url(#SVGID_00000072986896067578474110000000790872075407427508_);}
	.st45{fill:url(#SVGID_00000083069606423522902990000016942132332052922242_);}
	.st46{opacity:0.95;}
	.st47{stroke:#FFFFFF;stroke-width:5.6683;stroke-miterlimit:10;}
	.st48{fill:#FFFFFF;stroke:#FFFFFF;stroke-width:5.6683;stroke-miterlimit:10;}
	.st49{fill:url(#SVGID_00000121958050003466060300000015421838953690089860_);}
	.st50{opacity:0.75;fill:#0A476B;}
	.st51{stroke:#FFFFFF;stroke-width:8.5369;stroke-miterlimit:10;}
	.st52{fill:#FFFFFF;stroke:#FFFFFF;stroke-width:8.5369;stroke-miterlimit:10;}
	.st53{fill:url(#SVGID_00000053518228814598534800000002710593038005917322_);}
	.st54{opacity:0.8;fill:url(#SVGID_00000033365248972412969570000008523394958620401795_);}
	.st55{fill:url(#SVGID_00000078014546244506372960000006189733285202151327_);}
	.st56{opacity:0.85;fill:#00496B;}
	.st57{fill:#007182;}
	.st58{fill:#00496F;}
	.st59{fill:url(#SVGID_00000046340567136039787690000017589949662456520586_);}
	.st60{opacity:0.9;}
	.st61{opacity:0.25;fill:#FFFFFF;stroke:#FFFFFF;stroke-width:1.1841;stroke-miterlimit:10;}
	.st62{fill:#FFFFFF;stroke:#FFFFFF;stroke-width:1.1841;stroke-miterlimit:10;}
	.st63{opacity:0.7;}
	.st64{opacity:0.8;fill:#FFFFFF;}
	.st65{display:none;}
	.st66{display:inline;opacity:0.5;fill:url(#SVGID_00000087384806981961615030000015710084017298265243_);}
	.st67{display:inline;}
	.st68{clip-path:url(#SVGID_00000013192007165157497430000008342837992482639537_);}
	.st69{fill:url(#SVGID_00000103978590986546845420000013203553298381230489_);}
	.st70{fill:url(#SVGID_00000134941228283067727580000010725532318070450365_);}
	.st71{fill:url(#SVGID_00000150815625555739797100000009563720510290423966_);}
	.st72{fill:url(#SVGID_00000052078600448528092280000006732937204499001246_);}
	.st73{fill:url(#SVGID_00000177449463308196343680000005976984473887528378_);}
	.st74{fill:url(#SVGID_00000041977586599788438530000004255304521806465939_);}
	.st75{fill:url(#SVGID_00000086650195684805400410000018428412856495588795_);}
	.st76{fill:url(#SVGID_00000115500564616583605950000011213273083697835441_);}
	.st77{fill:url(#SVGID_00000106865568205253692040000018279781785780427911_);}
	.st78{display:inline;fill:none;}
	.st79{display:inline;fill-rule:evenodd;clip-rule:evenodd;fill:none;}
	.st80{display:inline;opacity:0.8;}
	.st81{display:inline;fill:url(#SVGID_00000000206566434894105660000001021698720678618506_);}
</style>
<g id="Layer_1">
	<g class="st60">
		
			<image style="overflow:visible;opacity:0.4;" width="836" height="75" xlink:href="B28F51906A978526.png"  transform="matrix(1 0 0 1 -7.3399 -1.5358)">
		</image>
		<g>
			<g>
				<g>
					<polygon class="st11" points="95.4,10.9 85.7,52.7 144.4,52.7 154.1,10.9 					"/>
					<polygon class="st11" points="60.3,10.9 50.6,52.7 80.3,52.7 90,10.9 					"/>
					<g>
						<polygon class="st11" points="29.6,10.9 15,10.9 3.4,52.7 19.9,52.7 						"/>
						<polygon class="st11" points="35,10.9 25.3,52.7 45.3,52.7 55,10.9 						"/>
					</g>
				</g>
				<g>
					<g>
						<path class="st11" d="M217.7,22.8l-0.8,2.6c-1,3.3-5.5,6.1-8.9,7.7l-14.7,6.9l-1.7,5.4h19.2l-2.2,7.3h-27.8l4.2-13.9
							c0,0,2.4-3.3,7.1-5.6l16.2-7.6l2.1-6.8c0.6-1.9,0.4-2.1-1.3-2.1h-6.8c-1.5,0-1.8,0.3-2.4,2.1l-1.1,3.7H190l1.9-6.2
							c1-3.3,6.2-6.6,9.5-6.6h12.8c3.3,0,6.5,3.3,5.5,6.6L217.7,22.8z"/>
						<path class="st11" d="M216.9,53.1c-3.1,0-5.4-2.4-4.4-5.5c0.9-3.1,4.6-5.5,7.8-5.5s5.4,2.4,4.4,5.5
							C223.8,50.8,220,53.1,216.9,53.1z"/>
						<path class="st11" d="M263.3,25.8c-0.4,1.2-3.2,4.1-7.1,4.6c3.5,0.5,4.6,3.3,4.2,4.6l-3.3,10.7c-0.5,1.5-4.9,7.1-8.4,7.1
							h-15.4c-3.3,0-6.1-3.9-5.1-7.3l1.8-5.9h8.4l-1.1,3.7c-0.5,1.5-0.3,1.9,1,1.9h8.1c1.7,0,2.1-0.3,2.6-2l2.1-6.9
							c0.5-1.6,0.3-1.9-1.2-1.9h-11.6l2.4-7.7h11.4c1.9,0,2.1-0.3,2.7-2.2l1.9-6.3c0.5-1.6,0.3-1.9-1.4-1.9h-8
							c-1.5,0-1.9,0.3-2.4,1.9l-1.1,3.6h-8.4l1.5-4.9c1-3.3,5.5-7.1,9.4-7.1h14.8c3.5,0,5.3,5.1,4.8,6.6L263.3,25.8z"/>
						<path class="st11" d="M264.7,52.6c-3.9,0-5.8-2.6-5.1-5l3.9-13.2c0.7-2.4,4-5,7.9-5h14.1l-2.3,4.5h-11.7
							c-0.9,0-1.5,0.8-1.7,1.6l-3.3,11.3c-0.2,0.6,0.1,1.3,0.6,1.3h6.8l1.5-5.1h-5.9l2.9-4.5h10.9l-4.1,14H264.7z"/>
						<path class="st11" d="M283.5,52.6l6.8-23.2h6.1l-6.8,23.2H283.5z"/>
						<path class="st11" d="M301.4,52.6c-3.9,0-5.8-2.6-5.1-5l3.9-13.2c0.7-2.4,4-5,7.9-5h14.1l-2.3,4.5h-11.7
							c-0.9,0-1.5,0.8-1.7,1.6l-3.3,11.3c-0.2,0.6,0.1,1.3,0.6,1.3h6.8L312,43h-5.9l2.8-4.5h10.9l-4.1,14H301.4z"/>
					</g>
					<g>
						<polygon class="st61" points="302.4,10.9 297.3,10.9 293.2,18 296.6,18 293.4,24.3 302.3,16.2 299.1,16.2 						"/>
						<polygon class="st62" points="313.3,10.9 308.2,10.9 304.1,18 307.5,18 304.3,24.3 313.2,16.2 310,16.2 						"/>
						<polygon class="st62" points="324.2,10.9 319.1,10.9 315,18 318.4,18 315.2,24.3 324.1,16.2 320.9,16.2 						"/>
						<polygon class="st61" points="291.5,10.9 286.4,10.9 282.3,18 285.7,18 282.5,24.3 291.4,16.2 288.2,16.2 						"/>
						<polygon class="st61" points="280.6,10.9 275.5,10.9 271.4,18 274.8,18 271.6,24.3 280.5,16.2 277.3,16.2 						"/>
					</g>
				</g>
				<g>
					<g>
						<path class="st11" d="M422.1,16.3H404l-2.6,8.4H413c3.5,0,6.9,3.4,5.7,7.1l-2.2,7.3l-1.9,6.4c-1.2,4-6.8,7.3-10.4,7.3h-11.3
							c-3.8,0-7.3-3.3-6-7.3l2.4-7.7h8.1l-2.1,6.9c-0.4,1.4-0.3,1.5,1.3,1.5h7.9c1.7,0,2.1-0.3,2.6-2l3.3-10.6
							c0.5-1.7,0.4-2.1-1.2-2.1h-18l6.7-21.9h27.7L422.1,16.3z"/>
						<path class="st11" d="M422.6,52.6c-3.9,0-5.8-2.6-5.1-5l3.9-13.2c0.7-2.4,4-5,7.9-5h14.1l-2.3,4.5h-11.7
							c-0.9,0-1.5,0.8-1.7,1.6l-3.3,11.3c-0.2,0.6,0.1,1.3,0.6,1.3h6.8l1.5-5.1h-5.9l2.9-4.5H441l-4.1,14H422.6z"/>
						<path class="st11" d="M441.3,52.6l6.8-23.2h6.1l-6.8,23.2H441.3z"/>
						<path class="st11" d="M459.2,52.6c-3.9,0-5.8-2.6-5.1-5l3.9-13.2c0.7-2.4,4-5,7.9-5H480l-2.3,4.5H466c-0.9,0-1.5,0.8-1.7,1.6
							l-3.3,11.3c-0.2,0.6,0.1,1.3,0.6,1.3h6.8l1.5-5.1h-5.9l2.8-4.5h10.9l-4.1,14H459.2z"/>
					</g>
					<g>
						<polygon class="st62" points="458.6,10.9 453.5,10.9 449.4,18 452.9,18 449.6,24.3 458.5,16.2 455.3,16.2 						"/>
						<polygon class="st62" points="469.5,10.9 464.4,10.9 460.3,18 463.8,18 460.5,24.3 469.4,16.2 466.2,16.2 						"/>
						<polygon class="st62" points="480.4,10.9 475.3,10.9 471.2,18 474.6,18 471.4,24.3 480.3,16.2 477.1,16.2 						"/>
						<polygon class="st61" points="447.7,10.9 442.6,10.9 438.5,18 442,18 438.7,24.3 447.6,16.2 444.4,16.2 						"/>
						<polygon class="st61" points="436.8,10.9 431.7,10.9 427.6,18 431.1,18 427.8,24.3 436.7,16.2 433.5,16.2 						"/>
					</g>
				</g>
				<g>
					<g>
						<path class="st11" d="M553.7,52.7h-8.3l9.6-31.5h-9.2l1.3-4.4c2.5,0,5.5-1,7.5-2.1c2.8-1.8,4.9-4.2,5.6-5.6h6.9L553.7,52.7z"
							/>
						<path class="st11" d="M591.4,46.9c-1,3.3-4.8,5.7-8.1,5.7h-17.2c-3.3,0-5.6-2.4-4.6-5.7l9.6-31.4c1-3.3,5.3-5.9,8.6-5.9H596
							c3.3,0,6,2.6,5,5.9L591.4,46.9z M579.5,16.6L571,44.8h12.3l8.6-28.2H579.5z"/>
						<path class="st11" d="M601.4,52.6c-3.9,0-5.8-2.6-5.1-5l3.9-13.2c0.7-2.4,4-5,7.9-5h14.1l-2.3,4.5h-11.7
							c-0.9,0-1.5,0.8-1.7,1.6l-3.3,11.3c-0.2,0.6,0.1,1.3,0.6,1.3h6.8L612,43h-5.9l2.9-4.5h10.9l-4.1,14H601.4z"/>
						<path class="st11" d="M620.1,52.6l6.8-23.2h6.1l-6.8,23.2H620.1z"/>
						<path class="st11" d="M638,52.6c-3.9,0-5.8-2.6-5.1-5l3.9-13.2c0.7-2.4,4-5,7.9-5h14.1l-2.3,4.5h-11.7c-0.9,0-1.5,0.8-1.7,1.6
							l-3.3,11.3c-0.2,0.6,0.1,1.3,0.6,1.3h6.8l1.5-5.1h-5.9l2.9-4.5h10.9l-4.1,14H638z"/>
					</g>
					<g>
						<polygon class="st62" points="638.8,10.9 633.6,10.9 629.5,18 633,18 629.7,24.3 638.6,16.2 635.4,16.2 						"/>
						<polygon class="st62" points="649.7,10.9 644.5,10.9 640.4,18 643.9,18 640.6,24.3 649.5,16.2 646.3,16.2 						"/>
						<polygon class="st62" points="660.6,10.9 655.4,10.9 651.3,18 654.8,18 651.5,24.3 660.4,16.2 657.2,16.2 						"/>
						<polygon class="st62" points="627.9,10.9 622.7,10.9 618.6,18 622.1,18 618.8,24.3 627.7,16.2 624.5,16.2 						"/>
						<polygon class="st62" points="617,10.9 611.8,10.9 607.7,18 611.2,18 607.9,24.3 616.8,16.2 613.6,16.2 						"/>
					</g>
				</g>
				<polygon class="st11" points="357.6,10.9 347.9,52.7 353.8,52.7 363.5,10.9 				"/>
				<polygon class="st11" points="515.7,10.9 506,52.7 512,52.7 521.7,10.9 				"/>
				<g>
					<polygon class="st11" points="771,10.9 761.3,52.7 798,52.7 807.7,10.9 					"/>
					<g>
						<polygon class="st11" points="747.3,10.9 706.7,10.9 695.1,52.7 737.6,52.7 						"/>
						<polygon class="st11" points="746.4,10.9 736.7,52.7 763,52.7 772.7,10.9 						"/>
					</g>
				</g>
			</g>
		</g>
	</g>
</g>
<g id="Layer_4" class="st65">
</g>
<g id="Layer_3" class="st65">
</g>
<g id="Layer_2" class="st65">
</g>
<g id="Layer_5" class="st65">
</g>
</svg>
