<?xml version="1.0" encoding="utf-8"?>
<!-- Generator: Adobe Illustrator 27.5.0, SVG Export Plug-In . SVG Version: 6.00 Build 0)  -->
<svg version="1.1" id="Layer_1" xmlns="http://www.w3.org/2000/svg" xmlns:xlink="http://www.w3.org/1999/xlink" x="0px" y="0px"
	 viewBox="0 0 48 48" style="enable-background:new 0 0 48 48;" xml:space="preserve">
<style type="text/css">
	.st0{fill:#007185;}
	.st1{fill:#00496F;}
</style>
<path class="st0" d="M9.1,42.8c-1,0-2-0.4-2.7-1.2c-0.8-0.8-1.1-1.7-1.1-2.7V22.3c-1-0.9-1.7-2-1.9-3.2c-0.3-1.2-0.2-2.5,0.2-3.6
	l2.2-6.9c0.3-1,0.8-1.8,1.5-2.3C8,5.7,8.8,5.4,9.8,5.4h28.1c1,0,1.9,0.3,2.7,0.9c0.8,0.6,1.3,1.4,1.6,2.3l2.2,6.9
	c0.4,1.2,0.5,2.4,0.2,3.7c-0.3,1.3-0.9,2.3-1.9,3.1v16.7c0,1-0.4,1.9-1.2,2.7c-0.8,0.8-1.7,1.2-2.7,1.2C38.8,42.8,9.1,42.8,9.1,42.8
	z M28.6,20.2c0.8,0,1.5-0.3,2.2-0.8c0.6-0.5,0.9-1.2,0.8-2.1l-1.2-8h-4.4v8c0,0.8,0.3,1.5,0.8,2.1C27.1,19.9,27.8,20.2,28.6,20.2z
	 M19.1,20.2c0.8,0,1.5-0.3,2.1-0.9c0.6-0.6,0.9-1.3,0.9-2.1v-8h-4.4l-1.2,8c-0.2,0.9,0,1.6,0.6,2.2C17.6,19.9,18.3,20.2,19.1,20.2z
	 M10,20.2c0.7,0,1.3-0.3,1.8-0.8c0.5-0.5,0.9-1.1,1-1.9L14,9.2H9.6l-2.3,7.1c-0.4,1-0.2,1.9,0.3,2.7C8.3,19.8,9,20.2,10,20.2z
	 M38,20.2c1,0,1.7-0.4,2.3-1.1c0.5-0.8,0.6-1.7,0.3-2.7l-2.2-7.1H34l1.2,8.3c0.1,0.7,0.4,1.3,0.9,1.9C36.7,19.9,37.3,20.2,38,20.2z
	 M9.1,38.9h29.7V24c0.1,0,0,0-0.2,0c-0.2,0-0.4,0-0.6,0c-0.8,0-1.6-0.2-2.4-0.5c-0.8-0.3-1.5-0.8-2.3-1.5c-0.6,0.6-1.2,1.1-2.1,1.5
	c-0.8,0.4-1.7,0.5-2.6,0.5c-1,0-1.9-0.1-2.7-0.4c-0.8-0.3-1.4-0.7-2-1.3c-0.5,0.5-1.2,1-1.9,1.3c-0.7,0.3-1.6,0.5-2.6,0.5
	c-1.1,0-2-0.2-2.8-0.5c-0.8-0.4-1.5-0.9-2.1-1.5c-0.8,0.6-1.5,1.1-2.3,1.5C11.5,23.9,10.8,24,10,24c-0.2,0-0.4,0-0.6,0
	c-0.2,0-0.2,0-0.3,0C9.1,24,9.1,38.9,9.1,38.9z M38.8,38.9H9.1H38.8z"/>
<g>
	<path class="st0" d="M-357.9-220.6v189.4l-55.7,55.7v-189.4C-413.6-195.6-388.6-220.6-357.9-220.6z"/>
	<polygon class="st0" points="-235.3,-31.2 -235.3,24.5 -413.6,24.5 -357.9,-31.2 	"/>
	<path class="st1" d="M-168.5-164.9L-168.5-164.9h-178.3v-55.7h122.6C-193.4-220.6-168.5-195.6-168.5-164.9"/>
	<polygon class="st1" points="-168.5,-98 -224.2,-42.3 -291,-42.3 -291,-98 	"/>
	<path class="st1" d="M-168.5-98v66.8c0,30.8-24.9,55.7-55.7,55.7v-66.8L-168.5-98z"/>
</g>
</svg>
